<?xml version="1.0" encoding="utf-8"?>
<!-- Generator: Adobe Illustrator 26.3.1, SVG Export Plug-In . SVG Version: 6.00 Build 0)  -->
<svg version="1.1" id="Layer_1" xmlns="http://www.w3.org/2000/svg" xmlns:xlink="http://www.w3.org/1999/xlink" x="0px" y="0px"
	 viewBox="0 0 1000 1000" style="enable-background:new 0 0 1000 1000;" xml:space="preserve">
<style type="text/css">
	.st0{fill:#1A1A1A;}
	.st1{opacity:0.3;}
	.st2{fill:url(#SVGID_1_);}
	.st3{fill:url(#SVGID_00000003096862582722205340000012360917033347644317_);}
	.st4{fill:url(#SVGID_00000096042891535443010190000010154758650723409826_);}
	.st5{fill:url(#SVGID_00000178205289895868091040000013513731089384857245_);}
	.st6{fill:url(#SVGID_00000102516401444574191240000004151215220661166266_);}
	.st7{fill:#F7931E;}
	.st8{font-family:'MyriadPro-Regular';}
	.st9{font-size:229.9415px;}
</style>
<g>
	<rect x="0.8" y="0.8" class="st0" width="999" height="999"/>
	<path d="M999.3,1.3v998H1.3V1.3H999.3 M1000.3,0.3H0.3v1000h1000V0.3L1000.3,0.3z"/>
</g>
<g class="st1">
	<linearGradient id="SVGID_1_" gradientUnits="userSpaceOnUse" x1="503.0003" y1="625.3954" x2="556.7404" y2="848.8409">
		<stop  offset="6.703911e-02" style="stop-color:#006CB6"/>
		<stop  offset="1" style="stop-color:#00AABC"/>
	</linearGradient>
	<path class="st2" d="M621.4,870.5L598.1,600L430,742.7c0,0,35,40.8,29.7,85.9C536.6,836,621.4,870.5,621.4,870.5z"/>
	
		<linearGradient id="SVGID_00000011750413922576581970000009623665867539836039_" gradientUnits="userSpaceOnUse" x1="342.1599" y1="1001.7742" x2="342.1599" y2="1312.6049">
		<stop  offset="0" style="stop-color:#F89A2A"/>
		<stop  offset="1" style="stop-color:#FFD000"/>
	</linearGradient>
	<path style="fill:url(#SVGID_00000011750413922576581970000009623665867539836039_);" d="M408.8,1221.6
		c-36.4-39.8-76.1-109.4-76.1-109.4s95.4-37.9,134.3-66.4c-56.7-14.3-113.9-30.8-166.4-47.1c-207.4,104.8,21.1,177.3,161.5,343.2
		c-2-37.3-0.9-77.2,3.6-119.7C465.7,1222.2,424.3,1239.7,408.8,1221.6z"/>
	
		<linearGradient id="SVGID_00000060023949208156234010000006712415177040397199_" gradientUnits="userSpaceOnUse" x1="528.3555" y1="1069.6562" x2="528.3555" y2="1559.2677">
		<stop  offset="0" style="stop-color:#EF4B23"/>
		<stop  offset="1" style="stop-color:#F3782A"/>
	</linearGradient>
	<path style="fill:url(#SVGID_00000060023949208156234010000006712415177040397199_);" d="M497.3,1053.2
		c-8.3,59.6-38.6,300.7-17.1,493.8c2.8,33.3-34.8,51.1-34.8,51.1s37.6,43,53.9,137.9c16.3-131.7-10.9-285.8,60.1-511.8
		c18.2-58,40.8-118.4,51.9-147.6C575.1,1070.7,536.5,1062.6,497.3,1053.2z"/>
	
		<linearGradient id="SVGID_00000180327007923061932070000005327921907816968893_" gradientUnits="userSpaceOnUse" x1="79.6996" y1="983.6902" x2="1017.1957" y2="983.6902">
		<stop  offset="6.703911e-02" style="stop-color:#A8CE38"/>
		<stop  offset="0.6648" style="stop-color:#00A551"/>
		<stop  offset="1" style="stop-color:#00A894"/>
	</linearGradient>
	<path style="fill:url(#SVGID_00000180327007923061932070000005327921907816968893_);" d="M445.4,862.5c0,0,399.3,119.9,399.3,164.4
		c-47.6,77.5-668-90.3-751.8-112.3c-4.6,3.1-9,6.3-13.2,9.7c108.8,41.1,383.5,130.2,531.6,152.4
		C1323.7,1178.1,988.6,981.8,445.4,862.5z"/>
	
		<linearGradient id="SVGID_00000038394512268363945220000014492336210425928360_" gradientUnits="userSpaceOnUse" x1="279.9258" y1="457.0677" x2="446.9764" y2="662.8979">
		<stop  offset="8.135156e-02" style="stop-color:#2E3191"/>
		<stop  offset="1" style="stop-color:#00599B"/>
	</linearGradient>
	<path style="fill:url(#SVGID_00000038394512268363945220000014492336210425928360_);" d="M615.3,120.8
		C602.5,309.2,571.7,536,470.8,548.2c-17.5,0-33.2-15.5-33.2-28.3c0-28.1,26.8-28.1,26.8-47.7c0-38.7-77.9-62.1-99.8-62.1
		c-79.9,0-82.1,67.4-82.1,67.4s-21.7,12.2-21.7,53.6s90.2,34.5,90.2,34.5c51.4,19.6,50.4,40.3,43,58.9c0,0-73.9,159.5-292.4,251.9
		C3.6,917.7-7.3,1035.4-7.3,1035.4c4.5-20.9,74.9-123.6,146-145.3c151-59.8,372.2-221,454.4-357.3c65.1-177.9,27.8-419,74.1-530.8
		C616.9,52.4,615.3,120.8,615.3,120.8z M410.6,614.2c0,0-16.3-76.2-59.7-95.3c-43.3-19.1-14.3-41.4-6.2-41.4c8.1,0,18,8.1,18,8.1
		s2.8-41.8-15.6-55.9c30.7-11.1,65.5,2.8,103.2,33.6c-11.9,31.5-39.9,38.2-77.4,30.4l75.7,84.9L410.6,614.2z"/>
</g>
<text transform="matrix(1 0 0 1 21.7504 567.7423)" class="st7 st8 st9">CONNECT</text>
</svg>
